<svg id="ox" xmlns="http://www.w3.org/2000/svg" viewBox="0 0 140.2 140.2">
  <defs>
    <style>
      .cls-1{opacity:.8}.cls-2{fill:#ffdc00}.cls-3{fill:#f9a11b}.cls-5{fill:#f7a790}.cls-5,.cls-6,.cls-8{stroke:#100733;stroke-linecap:round;stroke-linejoin:round;stroke-width:2.17px}.cls-6{fill:#f06566}.cls-7{fill:#100834}.cls-8,.cls-9{fill:#fff9ec}
    </style>
  </defs>
  <g id="circle">
    <g id="circle_half_tone" class="cls-1">
      <path class="cls-2" d="M20.53 20.53a70.1 70.1 0 0199.14 99.14z"/>
      <path class="cls-3" d="M119.67 119.67a70.1 70.1 0 01-99.14-99.14z"/>
    </g>
    <g id="circle_half_tone-2" data-name="circle_half_tone" class="cls-1">
      <path class="cls-2" d="M70.1 7.44a62.66 62.66 0 010 125.32z"/>
      <path class="cls-3" d="M70.1 132.76a62.66 62.66 0 010-125.32z"/>
    </g>
    <g id="circle_half_tone-3" data-name="circle_half_tone" class="cls-1">
      <path class="cls-2" d="M107.29 32.91a52.59 52.59 0 01-74.38 74.38z"/>
      <path class="cls-3" d="M32.91 107.29a52.59 52.59 0 0174.38-74.38z"/>
    </g>
    <circle id="circle-2" data-name="circle" cx="70.1" cy="70.1" r="41.21" fill="#fdcd05"/>
  </g>
  <g id="ox-2" data-name="ox">
    <g id="ears">
      <path id="ear2" class="cls-5" d="M113.41 67.88c-4.26 0-9.81-3.36-10.37-7.7a25.5 25.5 0 00-.5-2.88l-.18-.73c-1.44-5.77-6.06-7.94-11.67-8.66v-2.17h19.19a3 3 0 012.89 3.08l2 17.53a1.44 1.44 0 01-1.36 1.52z"/>
      <path id="ear" class="cls-5" d="M26.8 67.88c4.26 0 9.82-3.36 10.37-7.7a25.5 25.5 0 01.5-2.88l.18-.73c1.44-5.77 6.06-7.94 11.67-8.66v-2.17H30.33a3 3 0 00-2.88 3.08l-2.07 17.55a1.43 1.43 0 001.38 1.5z"/>
    </g>
    <path id="body" class="cls-5" d="M70 34.63h.25a30.89 30.89 0 0130.9 30.9v31.25a16.51 16.51 0 01-16.53 16.52h-29a16.52 16.52 0 01-16.54-16.51V65.52A30.9 30.9 0 0170 34.63z"/>
    <path id="stomach" class="cls-6" d="M83.15 113.3V99.23c0-6.9-5.28-12.5-11.79-12.5h-2.5c-6.5 0-11.8 5.6-11.8 12.5v14.07z"/>
    <g id="sides">
      <path id="side" class="cls-6" d="M98.17 52.47l-3.86 1.21c-6.67 2.08-10.48 9.49-8.52 16.56 1.94 7 8.76 11 15.34 9.1V66.21a33 33 0 00-2.96-13.74z"/>
      <path id="side2" class="cls-6" d="M54.42 70.24c2-7.07-1.85-14.48-8.52-16.56L42 52.47a33.13 33.13 0 00-3 13.72v13.15c6.66 1.88 13.46-2.13 15.42-9.1z"/>
    </g>
    <path id="mouth" class="cls-6" d="M54.16 89.46l.72 5.7a4.47 4.47 0 002.81 3 35.8 35.8 0 0024.93 0 4.45 4.45 0 002.78-3l.65-5.48c-3 3-8.84 4.28-15.56 4.28-6.88.04-13.2-1.31-16.33-4.5z"/>
    <path id="snout" class="cls-6" d="M83.64 68.37H56.57c-4.69 0-8.13 5-7 10.11l2.53 10.83c3.53 3.61 10.65 5.06 18.4 5.06 7.59 0 14.18-1.4 17.55-4.82l2.55-11.09c1.17-5.12-2.26-10.1-6.96-10.09z"/>
    <g id="nostrils">
      <ellipse id="nostril2" class="cls-7" cx="53.5" cy="76.94" rx="3.06" ry="4.41" transform="rotate(-30.37 53.5 76.95)"/>
      <ellipse id="nostril2-2" class="cls-7" cx="86.7" cy="76.94" rx="4.41" ry="3.06" transform="rotate(-59.63 86.7 76.93)"/>
    </g>
    <g id="horns">
      <path id="horn" class="cls-8" d="M88.8 36.17h-5.7v8.36s18.78 2.39 22.86-1.45c2.89-2.63 1.39-16.15 1.39-16.15l-6.28 9.24H88.79"/>
      <path id="horn2" class="cls-8" d="M51.41 36.17h5.7v8.36s-18.77 2.39-22.85-1.45c-2.89-2.66-1.4-16.18-1.4-16.18l6.28 9.24h12.28"/>
      <path id="hair" class="cls-6" d="M54.13 34.63h31.4a3.2 3.2 0 013.2 3.19v.3a8.12 8.12 0 01-8.09 8.15H59.05a8.12 8.12 0 01-8.12-8.11v-.37a3.2 3.2 0 013.2-3.2z"/>
    </g>
    <g id="eyes">
      <ellipse id="eye2" class="cls-7" cx="49.39" cy="67.23" rx="2.92" ry="3.1"/>
      <ellipse id="eye" class="cls-7" cx="90.83" cy="67.23" rx="2.92" ry="3.1"/>
      <circle id="eye_highlight" data-name="eye highlight" class="cls-9" cx="90.83" cy="65.84" r=".73"/>
      <circle id="eye_highlight-2" data-name="eye highlight-2" class="cls-9" cx="49.39" cy="65.88" r=".73"/>
    </g>
  </g>
</svg>
