<svg xmlns="http://www.w3.org/2000/svg" viewBox="0 0 140.2 140.2">
  <defs>
    <clipPath id="clip-path">
      <path d="M111.88 81l.49-.34L107.7 76l-3-3.53v-7.93c0-17.91-15.52-32.44-34.62-32.44-19.08 0-34.56 14.53-34.56 32.46v7.8L32 76.57l-4.1 4.06.42.3-.47.56 8.31 9.85c9.71 12.89 12.75 18.78 25 18.78h18.01c12.27 0 15.45-4.87 25-19l8.16-9.69z" fill="none"/>
    </clipPath>
    <style>
      .cls-8{fill:none}.cls-2{opacity:.8}.cls-3{fill:#ffdc00}.cls-4{fill:#f9a11b}.cls-6{fill:#f7a790}.cls-6,.cls-7,.cls-8,.cls-9{stroke:#100733;stroke-linecap:round;stroke-linejoin:round;stroke-width:2.17px}.cls-12,.cls-7{fill:#fff9ec}.cls-9{fill:#f06566}.cls-11{fill:#100834}
    </style>
  </defs>
  <g id="tiger">
    <g id="circle">
      <g id="circle_half_tone" class="cls-2">
        <path class="cls-3" d="M20.53 20.53a70.1 70.1 0 0199.14 99.14z"/>
        <path class="cls-4" d="M119.67 119.67a70.1 70.1 0 01-99.14-99.14z"/>
      </g>
      <g id="circle_half_tone-2" data-name="circle_half_tone" class="cls-2">
        <path class="cls-3" d="M70.1 7.44a62.66 62.66 0 010 125.32z"/>
        <path class="cls-4" d="M70.1 132.76a62.66 62.66 0 010-125.32z"/>
      </g>
      <g id="circle_half_tone-3" data-name="circle_half_tone" class="cls-2">
        <path class="cls-3" d="M107.29 32.91a52.59 52.59 0 01-74.38 74.38z"/>
        <path class="cls-4" d="M32.91 107.29a52.59 52.59 0 0174.38-74.38z"/>
      </g>
      <circle id="circle-2" data-name="circle" cx="70.1" cy="70.1" r="41.21" fill="#fdcd05"/>
    </g>
    <g id="tiger-2" data-name="tiger">
      <g id="ears">
        <path class="cls-6" d="M33.25 32.84C35.13 31.39 51 38.91 52 41.34s-3.46 6.85-5.35 8.32-7.44 5-9.73 3.41c-2.15-1.49-5.53-18.77-3.67-20.23z"/>
        <path class="cls-7" d="M36.6 37.06c.9-.73 9.76 4.59 10.41 6s-.59 3.66-1.84 4.69c-1.41 1.16-4 1.91-5.31.87S35.7 37.75 36.6 37.06z"/>
        <path class="cls-6" d="M106.91 32.84c-1.87-1.47-17.76 6.1-18.7 8.5s3.47 6.85 5.35 8.32 7.45 5 9.74 3.41 5.51-18.77 3.61-20.23z"/>
        <path class="cls-7" d="M103.59 37.06c-.89-.73-9.75 4.59-10.41 6s.6 3.66 1.85 4.69c1.45 1.16 4 1.91 5.3.87s4.16-10.87 3.26-11.56z"/>
      </g>
      <path id="head" class="cls-6" d="M111.88 81l.49-.35L107.7 76l-3-3.52v-7.97c0-17.9-15.52-32.43-34.62-32.43-19.08 0-34.56 14.53-34.56 32.46v7.8L32 76.55l-4.1 4 .42.31-.47.56 8.31 9.84c9.71 12.9 12.75 18.78 25 18.78h18.01c12.27 0 15.45-4.87 25-19l8.16-9.69z"/>
      <circle id="mouth" class="cls-7" cx="70.1" cy="92.6" r="8.77"/>
      <circle id="muzzle" class="cls-7" cx="59.18" cy="86.42" r="10.92"/>
      <circle id="muzzle-2" class="cls-7" cx="81.02" cy="86.42" r="10.92"/>
      <g id="snout">
        <path class="cls-8" d="M70.08 86.42a10.92 10.92 0 01-21.84 0M91.94 86.42a10.92 10.92 0 01-21.84 0"/>
      </g>
      <path id="nose" class="cls-9" d="M75.86 74.33H64a3 3 0 00-2.64 3.34 3 3 0 00.59 1.47l.72 1c.15.57 2.8 0 2.82 3.36 0 1.9 2.39 2.42 4.61 2.42s4.63-.53 4.65-2.4c0-3.37 2.67-2.8 2.82-3.37l.72-1a3 3 0 00-.58-4.23 3.05 3.05 0 00-1.48-.59z"/>
      <g id="stripes">
        <g clip-path="url(#clip-path)">
          <g id="stripes-2">
            <path class="cls-9" d="M36.59 83.61L30 79.7l2.69-2.69 3.9 6.6zM39.89 80.31l-6.6-3.91 2.7-2.69 3.9 6.6z"/>
          </g>
          <g id="stripes-3">
            <path class="cls-9" d="M103.62 83.8l6.6-3.9-2.69-2.7-3.91 6.6zM100.18 80.36l6.6-3.9-2.7-2.69-3.9 6.59z"/>
          </g>
          <g id="stripes-4">
            <path class="cls-9" d="M70.39 51.53l-5.33-20.74H75.7l-5.31 20.74z"/>
            <path class="cls-9" d="M59.8 51.53l-5.32-20.74h10.64L59.8 51.53zM80.99 51.53l-5.31-20.74h10.64l-5.33 20.74z"/>
          </g>
        </g>
        <path id="mask-2" class="cls-8" d="M111.88 81l.49-.34L107.7 76l-3-3.53v-7.93c0-17.91-15.52-32.44-34.62-32.44-19.08 0-34.56 14.53-34.56 32.46v7.8L32 76.57l-4.1 4.06.42.3-.47.56 8.31 9.85c9.71 12.89 12.75 18.78 25 18.78h18.01c12.27 0 15.45-4.87 25-19l8.16-9.69z"/>
      </g>
      <g id="eyes">
        <circle id="eye2" class="cls-11" cx="48.73" cy="73.72" r="3.02"/>
        <circle id="eye" class="cls-11" cx="91.47" cy="73.72" r="3.02"/>
        <path id="eyebrow2" class="cls-8" d="M47.96 70.03L51.03 73"/>
        <path id="eyebrow" class="cls-8" d="M92.24 69.94l-3.07 2.97"/>
        <circle id="eye_highlight" data-name="eye highlight" class="cls-12" cx="91.47" cy="72.37" r=".73"/>
        <circle id="eye_highlight-2" data-name="eye highlight-2" class="cls-12" cx="48.73" cy="72.42" r=".73"/>
      </g>
    </g>
  </g>
</svg>
