<svg xmlns="http://www.w3.org/2000/svg" viewBox="0 0 140.2 140.2">
  <defs>
    <style>
      .cls-1{opacity:.8}.cls-2{fill:#ffdc00}.cls-3{fill:#f9a11b}.cls-5{fill:#f7a790}.cls-5,.cls-6,.cls-7,.cls-8{stroke:#100733;stroke-linecap:round;stroke-linejoin:round;stroke-width:2.03px}.cls-6{fill:#f06566}.cls-7{fill:#fff9ec}.cls-8{fill:none}
    </style>
  </defs>
  <g id="rabbit">
    <g id="circle">
      <g id="circle_half_tone" class="cls-1">
        <path class="cls-2" d="M20.53 20.53a70.1 70.1 0 0199.14 99.14z"/>
        <path class="cls-3" d="M119.67 119.67a70.1 70.1 0 01-99.14-99.14z"/>
      </g>
      <g id="circle_half_tone-2" data-name="circle_half_tone" class="cls-1">
        <path class="cls-2" d="M70.1 7.44a62.66 62.66 0 010 125.32z"/>
        <path class="cls-3" d="M70.1 132.76a62.66 62.66 0 010-125.32z"/>
      </g>
      <g id="circle_half_tone-3" data-name="circle_half_tone" class="cls-1">
        <path class="cls-2" d="M107.29 32.91a52.59 52.59 0 01-74.38 74.38z"/>
        <path class="cls-3" d="M32.91 107.29a52.59 52.59 0 0174.38-74.38z"/>
      </g>
      <circle id="circle-2" data-name="circle" cx="70.1" cy="70.1" r="41.21" fill="#fdcd05"/>
    </g>
    <g id="rabbit-2" data-name="rabbit">
      <g id="ears">
        <g id="ears-2">
          <path class="cls-5" d="M52.93 70.77c-4.69 1-5.73-2.78-6.7-7.47l-9.61-28.85a8.66 8.66 0 016.74-10.22A8.66 8.66 0 0153.6 31l2.54 30.3c.95 4.7 1.47 8.5-3.21 9.47z"/>
          <path class="cls-6" d="M51 60.56c-2.14.44-2.13 1.17-2.7-1.67l-7.01-20.61a5.38 5.38 0 014-5.93c2.14-.43 4.34 1.51 4.93 4.35l2.07 18.85c.54 2.84.88 4.57-1.29 5.01z"/>
          <path class="cls-5" d="M39.08 39.65c10.31 3.25 13.22-5.86 14-8.4 1.62-5.16-6-7.55-8.6-8.38s-10.7-3.37-12.31 1.79c-.81 2.53-3.84 11.6 6.91 14.99z"/>
        </g>
        <g id="ears-3">
          <path class="cls-5" d="M87.28 70.77C92 71.73 93 68 94 63.3l9.62-28.85a8.67 8.67 0 00-6.75-10.23A8.66 8.66 0 0086.61 31l-2.53 30.27c-.97 4.73-1.49 8.53 3.2 9.5z"/>
          <path class="cls-6" d="M89.17 60.56c2.13.44 2.12 1.17 2.7-1.67l7-20.61a5.38 5.38 0 00-4-5.93c-2.14-.43-4.35 1.51-4.93 4.35L88 55.55c-.62 2.84-1 4.57 1.17 5.01z"/>
          <path class="cls-5" d="M101.12 39.65c-10.3 3.25-13.22-5.86-14-8.4-1.62-5.16 6-7.55 8.61-8.38s10.71-3.37 12.34 1.79c.77 2.53 3.79 11.6-6.95 14.99z"/>
        </g>
      </g>
      <path id="head" class="cls-5" d="M98.93 81.83v-3.64a28.69 28.69 0 00-5.3-16.65 28 28 0 00-23.44-12.67 28 28 0 00-21.06 9.52 28.77 28.77 0 00-7.87 19.8v3.65a16.3 16.3 0 00-5.34 12.1A16.3 16.3 0 0041.26 106a12.66 12.66 0 0012.65 12.65h32.37a12.64 12.64 0 0012.65-12.64 16.32 16.32 0 005.36-12.1 16.3 16.3 0 00-5.36-12.08z"/>
      <path id="teeth" class="cls-7" d="M64.86 94.51h10.49v16.43H64.86z"/>
      <path id="teeth_middle" data-name="teeth middle" class="cls-8" d="M70.1 95.11v15.36"/>
      <path id="snout" class="cls-7" d="M85.18 53.27a13.35 13.35 0 00-4.61 3.8C77.19 61.29 75 68 75 75.49a30.56 30.56 0 005.54 18 5.25 5.25 0 01-10.49.38 2.41 2.41 0 010-.38 5.25 5.25 0 01-10.5 0 30.49 30.49 0 005.55-18c0-7.52-2.19-14.18-5.57-18.42A13.33 13.33 0 0055 53.32a27.06 27.06 0 013.38-1.86l1.15-.46a28 28 0 0125.67 2.3z"/>
      <path id="nose" class="cls-6" d="M70.1 89.92c-1.59 0-6.88-2.58-6.37-3.43s4.63-1.15 6.26-1.15 6 .21 6.52 1.13-4.81 3.45-6.41 3.45z"/>
      <g id="whiskers">
        <path class="cls-8" d="M59.36 93.19l-26.22-1.36M59.36 93.19l-21.47 15.06M59.36 93.19l-27.58 6.97M80.84 93.19l26.22-1.36M80.84 93.19l21.47 15.06M80.84 93.19l27.58 6.97"/>
      </g>
      <g id="eyes">
        <path id="eye_smile2" data-name="eye smile2" class="cls-8" d="M49.47 87.36c2.1-1.5 4.65-1.52 5.7 0"/>
        <path id="eye_smile" data-name="eye smile" class="cls-8" d="M90.74 87.41c-2.1-1.5-4.66-1.52-5.71 0"/>
      </g>
    </g>
  </g>
</svg>
