<svg xmlns="http://www.w3.org/2000/svg" viewBox="0 0 140.2 140.2">
  <defs>
    <style>
      .cls-1{opacity:.8}.cls-2{fill:#ffdc00}.cls-3{fill:#f9a11b}.cls-5{fill:#f7a790}.cls-5,.cls-6,.cls-9{stroke:#100733;stroke-linecap:round;stroke-linejoin:round;stroke-width:2.17px}.cls-6{fill:#f06566}.cls-8{fill:#100834}.cls-9{fill:none}
    </style>
  </defs>
  <g id="horse">
    <g id="circle">
      <g id="circle_half_tone" class="cls-1">
        <path class="cls-2" d="M20.53 20.53a70.1 70.1 0 0199.14 99.14z"/>
        <path class="cls-3" d="M119.67 119.67a70.1 70.1 0 01-99.14-99.14z"/>
      </g>
      <g id="circle_half_tone-2" data-name="circle_half_tone" class="cls-1">
        <path class="cls-2" d="M70.1 7.44a62.66 62.66 0 010 125.32z"/>
        <path class="cls-3" d="M70.1 132.76a62.66 62.66 0 010-125.32z"/>
      </g>
      <g id="circle_half_tone-3" data-name="circle_half_tone" class="cls-1">
        <path class="cls-2" d="M107.29 32.91a52.59 52.59 0 01-74.38 74.38z"/>
        <path class="cls-3" d="M32.91 107.29a52.59 52.59 0 0174.38-74.38z"/>
      </g>
      <circle id="circle-2" data-name="circle" cx="70.1" cy="70.1" r="41.21" fill="#fdcd05"/>
    </g>
    <g id="horse-2" data-name="horse">
      <g id="ears">
        <g id="ear">
          <path class="cls-5" d="M57 42.64L39.91 18l-.62.43a14.82 14.82 0 00-4.91 5.71l22.29 18.73z"/>
          <path class="cls-6" d="M35.47 39.25a15 15 0 0020.86 3.83l.33-.24-22.28-18.75a15 15 0 001.09 15.16z"/>
        </g>
        <g id="ear-2">
          <path class="cls-5" d="M84.83 42.64l17-24.69.62.43a14.94 14.94 0 014.93 5.71L85.11 42.87z"/>
          <path class="cls-6" d="M106.31 39.25a15 15 0 01-20.87 3.83l-.33-.21 22.31-18.78a15 15 0 01-1.11 15.16z"/>
        </g>
      </g>
      <g id="mane">
        <circle id="hair" class="cls-6" cx="50.7" cy="62.5" r="15.89"/>
        <circle id="hair-2" class="cls-6" cx="47.12" cy="77.91" r="15.89"/>
        <circle id="hair-3" class="cls-6" cx="47.12" cy="93.8" r="15.89"/>
        <path class="cls-6" d="M55.77 110.21a12.65 12.65 0 01-8.75 12 15.05 15.05 0 00.1-1.78 15.29 15.29 0 00-1.82-7.22 13.78 13.78 0 00-5.73-5.49 15.9 15.9 0 01-3.32-2.39l-.17-.16a6.9 6.9 0 00-.46-.48 16.74 16.74 0 0111.5-4.39 15.83 15.83 0 014.78.72 12.56 12.56 0 013.52 6.28 12.06 12.06 0 01.35 2.91z"/>
      </g>
      <path id="body" class="cls-5" d="M70.89 107.32c-17.13 0-31-5.42-31-22.56V68a30.89 30.89 0 0130.83-30.91H71A30.89 30.89 0 01101.92 68v16.75c0 17.15-13.92 22.57-31.03 22.57z"/>
      <path id="snout" d="M78.39 76.39a29.18 29.18 0 003.38 13.88c-9.81 3.21-11.4 3.16-21.47-.15a29.26 29.26 0 003.29-13.72c0-6.09-1.72-16.71-4.56-20.92 3.19 2.52 7.43 9.12 12.06 9.12 4.44 0 8.52-6.5 11.66-8.81C80 60 78.39 70.45 78.39 76.39z" fill="#fff9ec" stroke="#100733" stroke-linecap="round" stroke-linejoin="round" stroke-width="2.17"/>
      <path id="muzzle2" class="cls-6" d="M79.1 96.66H62.69c-2.85 0-4.93 3.49-4.22 7.09l2 10.06a3.35 3.35 0 001.91 2.4 21.37 21.37 0 0017 0 3.35 3.35 0 001.92-2.4l2-10.06c.7-3.6-1.3-7.1-4.2-7.09z"/>
      <path id="muzzle" class="cls-6" d="M84.51 89.27c-13.54 4.5-13.54 4.5-27.08 0-2.83-.93-5.34 1.33-6.5 4.4-1 2.78 2 11 4.2 12.94 3.53 3.62 8.48 5.06 16.24 5.06 7.57 0 12-1.39 15.37-4.82 2.38-2.28 5.35-10.9 4-13.89-1.29-2.7-3.63-4.55-6.23-3.69z"/>
      <g id="nostrils">
        <ellipse id="nostril2" class="cls-8" cx="54.17" cy="97.84" rx="3.06" ry="4.41" transform="rotate(-30.37 54.17 97.83)"/>
        <ellipse id="nostril2-2" class="cls-8" cx="87.62" cy="97.84" rx="4.41" ry="3.06" transform="rotate(-59.63 87.62 97.84)"/>
      </g>
      <g id="hair-4">
        <ellipse id="hair-5" class="cls-6" cx="70.89" cy="48.14" rx="15.89" ry="13.9"/>
        <path class="cls-6" d="M81.35 37.67v10.58c0 8.32-3.71 16.34-10.45 22.61-6.75-6.27-10.42-14.27-10.42-22.61V37.67a17.67 17.67 0 0120.94 0z"/>
      </g>
      <g id="eyes">
        <path id="eye_smile2" data-name="eye smile2" class="cls-9" d="M46.13 80c2.52-1.8 5.59-1.82 6.85 0"/>
        <path id="eye_smile" data-name="eye smile" class="cls-9" d="M95.65 80.05c-2.52-1.8-5.56-1.8-6.84 0"/>
      </g>
    </g>
  </g>
</svg>
