<svg xmlns="http://www.w3.org/2000/svg" viewBox="0 0 1288.92 1288.92">
  <defs>
    <style>
      .cls-1{fill:#632535}
    </style>
  </defs>
  <g id="Layer_2" data-name="Layer 2">
    <g id="middle">
      <g id="slices">
        <path class="cls-1" d="M644.52 644.58l-82.71-322.29L479.11 0h330.82l-82.71 322.29-82.7 322.29z"/>
        <path class="cls-1" d="M644.57 644.53L411.8 406.78 179.03 169.02l143.25-82.71 143.25-82.7 89.52 320.46 89.52 320.46z"/>
        <path class="cls-1" d="M644.59 644.47l-320.46-89.52L3.66 465.43l82.71-143.25 82.71-143.25L406.83 411.7l237.76 232.77z"/>
        <path class="cls-1" d="M644.58 644.4l-322.29 82.71L0 809.81V478.99l322.29 82.7 322.29 82.71z"/>
        <path class="cls-1" d="M644.53 644.35L406.78 877.12l-237.76 232.77-82.71-143.25-82.7-143.25 320.46-89.52 320.46-89.52z"/>
        <path class="cls-1" d="M644.47 644.33l-89.52 320.46-89.52 320.47-143.25-82.71-143.25-82.71L411.7 882.08l232.77-237.75z"/>
        <path class="cls-1" d="M644.4 644.34l82.71 322.29 82.7 322.29H478.99l82.7-322.29 82.71-322.29z"/>
        <path class="cls-1" d="M644.35 644.38l232.77 237.76 232.77 237.76-143.25 82.71-143.25 82.7-89.52-320.46-89.52-320.47z"/>
        <path class="cls-1" d="M644.33 644.45l320.46 89.52 320.47 89.52-82.71 143.25-82.71 143.25-237.76-232.77-237.75-232.77z"/>
        <path class="cls-1" d="M644.34 644.52l322.29-82.71 322.29-82.7v330.82l-322.29-82.71-322.29-82.7z"/>
        <path class="cls-1" d="M644.38 644.57L882.14 411.8l237.76-232.77 82.71 143.25 82.7 143.25-320.46 89.52-320.47 89.52z"/>
        <path class="cls-1" d="M644.45 644.59l89.52-320.46L823.49 3.66l143.25 82.71 143.25 82.71-232.77 237.75-232.77 237.76z"/>
      </g>
    </g>
  </g>
</svg>
